<?xml version="1.0" encoding="UTF-8"?>
<svg id="Layer_1" data-name="Layer 1" xmlns="http://www.w3.org/2000/svg" xmlns:xlink="http://www.w3.org/1999/xlink" viewBox="0 0 482.67 259.03">
  <defs>
    <linearGradient id="linear-gradient" x1="294.98" y1="126.91" x2="386.83" y2="126.91" gradientUnits="userSpaceOnUse">
      <stop offset=".03" stop-color="#fff"/>
      <stop offset=".27" stop-color="#e1f0ee"/>
      <stop offset=".58" stop-color="#c1dfdc"/>
      <stop offset=".76" stop-color="#b5d9d6"/>
    </linearGradient>
  </defs>
  <polygon points="42.99 72.61 13.5 72.61 13.5 132.34 35.37 132.32 35.37 107.67 42.41 124.08 46.1 132.3 70.13 132.28 42.99 72.61" style="fill: #68a19c; stroke-width: 0px;"/>
  <polygon points="13.5 200.25 35.37 200.25 35.37 160.6 35.37 132.32 13.5 132.34 13.5 200.25" style="fill: #e1b477; stroke-width: 0px;"/>
  <polygon points="84.01 72.61 84.01 107.87 84.01 132.26 105.88 132.24 105.88 72.61 84.01 72.61" style="fill: #68a19c; stroke-width: 0px;"/>
  <polygon points="140.66 144.49 190.66 144.49 190.66 132.14 116.25 132.22 116.25 200.25 193.11 200.25 193.11 179.94 140.66 179.94 140.66 144.49" style="fill: #e1b477; stroke-width: 0px;"/>
  <polygon points="84.01 164.21 77.86 149.27 70.13 132.28 46.1 132.3 76.59 200.25 105.88 200.25 105.88 132.24 84.01 132.26 84.01 164.21" style="fill: #e1b477; stroke-width: 0px;"/>
  <polygon points="190.66 124.66 140.66 124.66 140.66 92.93 193.11 92.93 193.11 72.61 116.25 72.61 116.25 132.22 190.66 132.14 190.66 124.66" style="fill: #68a19c; stroke-width: 0px;"/>
  <path d="m80.01,68.61v61.65h.11" style="fill: none; stroke: #2b2b2a;"/>
  <path d="m30.94,130.32h.44v-26.65l7.03,16.41,4.59,10.23h.11" style="fill: none; stroke: #2b2b2a;"/>
  <path d="m112.51,130.23h-.26v66.02h76.86v-20.31h-52.44v-35.45h50v-10.2" style="fill: none; stroke: #2b2b2a;"/>
  <path d="m9.66,130.34h-.16v65.91h21.88v-65.93h-.16" style="fill: none; stroke: #2b2b2a;"/>
  <g>
    <path d="m101.88,130.18v-61.57h-21.88" style="fill: none; stroke: #2b2b2a;"/>
    <path d="m66.92,130.28h.12s-28.04-61.66-28.04-61.66H9.5v61.73h.14" style="fill: none; stroke: #2b2b2a;"/>
    <path d="m43.39,130.3h-.39s29.59,65.95,29.59,65.95h29.3v-66.01h-.52" style="fill: none; stroke: #2b2b2a;"/>
    <path d="m80.29,130.26h-.29v29.95l-6.15-14.94-6.82-15h-.35" style="fill: none; stroke: #2b2b2a;"/>
  </g>
  <path d="m186.16,130.14h.5v-9.48h-50v-31.74h52.44v-20.31h-76.86v61.61h.43" style="fill: none; stroke: #2b2b2a; stroke-miterlimit: 10;"/>
  <g>
    <path d="m296.82,206.51c18.5,2.54,81.38,9.67,96-17,15.11-27.58-23.78-86.92-102-145" style="fill: url(#linear-gradient); stroke-width: 0px;"/>
    <path d="m296.82,206.51c25.06,2.55,88.66,8.11,96.89-23.14,7.94-37.11-48.88-92.99-75.11-115.85-8.98-7.99-18.32-15.57-27.77-23.02,9.86,6.9,19.4,14.27,28.73,21.9,27.48,23.3,54.36,49.19,70.59,81.84,6.29,13.5,11.6,31.04,2.3,44.43-17.39,23.22-69.87,17.89-95.62,13.84h0Z" style="fill: #0d1d32; stroke-width: 0px;"/>
  </g>
  <path d="m395.95,182.23l83.1,2-83.1,2c-2.69,0-2.71-3.99,0-4h0Z" style="fill: #2b2b2a; stroke-width: 0px;"/>
  <path d="m451.97,166.51c.42,6.59.8,16.16,1.05,22.86.13,3.81.52,7.62.3,11.43-.2,3.81-.52,7.62-1.35,11.43-.02.08-.1.14-.18.12-1.91-7.47-1.59-15.32-1.17-22.97.26-6.72.63-16.23,1.05-22.86,0-.17.29-.19.3,0h0Z" style="fill: #2b2b2a; stroke-width: 0px;"/>
  <text transform="translate(369.98 82.66)" style="font-family: NeueHaasGroteskTextPro, &apos;Neue Haas Grotesk Text Pro&apos;; font-size: 18px; font-variation-settings: &apos;wght&apos; 400;"><tspan x="0" y="0">ON</tspan><tspan x="28.21" y="0" style="letter-spacing: .02em;">E</tspan><tspan x="40.56" y="0">.</tspan></text>
  <text transform="translate(398.98 111.66)" style="font-family: NeueHaasGroteskTextPro, &apos;Neue Haas Grotesk Text Pro&apos;; font-size: 18px; font-variation-settings: &apos;wght&apos; 400;"><tspan x="0" y="0">NIGH</tspan><tspan x="45.45" y="0" style="letter-spacing: -.09em;">T</tspan><tspan x="55.6" y="0">.</tspan></text>
  <text transform="translate(418.98 140.66)" style="font-family: NeueHaasGroteskTextPro, &apos;Neue Haas Grotesk Text Pro&apos;; font-size: 18px; font-variation-settings: &apos;wght&apos; 400;"><tspan x="0" y="0" style="letter-spacing: -.04em;">S</tspan><tspan x="11.46" y="0" style="letter-spacing: -.09em;">T</tspan><tspan x="21.61" y="0">AN</tspan><tspan x="47.52" y="0" style="letter-spacing: -.05em;">D</tspan><tspan x="59.8" y="0">.</tspan></text>
  <path d="m199.1,132.21l20.08-31.29-18.4-28.24h20.16l3.98,6.95c.57.99,1.16,2.02,1.76,3.09.6,1.07,1.16,2.07,1.68,3.01.52.94,1.11,1.98,1.76,3.12h.16c.65-1.15,1.24-2.17,1.78-3.09.53-.91,1.11-1.9,1.74-2.97.62-1.07,1.22-2.08,1.8-3.05l4.14-7.07h19.06l-18.09,28.16,19.92,31.37h-20.82l-5.27-9.61c-.55-1.02-1.12-2.07-1.72-3.16-.6-1.09-1.15-2.12-1.64-3.07-.5-.95-1.05-2.01-1.68-3.18h-.08c-.65,1.2-1.24,2.29-1.78,3.26-.53.98-1.11,2.03-1.74,3.14-.62,1.12-1.24,2.2-1.84,3.24l-5.47,9.38h-19.49Z" style="fill: #68a19c; stroke-width: 0px;"/>
  <path d="m195.32,128.12l20.08-31.29-18.4-28.24h20.16l3.98,6.95c.57.99,1.16,2.02,1.76,3.09.6,1.07,1.16,2.07,1.68,3.01.52.94,1.11,1.98,1.76,3.12h.16c.65-1.15,1.24-2.17,1.78-3.09.53-.91,1.11-1.9,1.74-2.97.62-1.07,1.22-2.08,1.8-3.05l4.14-7.07h19.06l-18.09,28.16,19.92,31.37h-20.82l-5.27-9.61c-.55-1.02-1.12-2.07-1.72-3.16-.6-1.09-1.15-2.12-1.64-3.07-.5-.95-1.05-2.01-1.68-3.18h-.08c-.65,1.2-1.24,2.29-1.78,3.26-.53.98-1.11,2.03-1.74,3.14-.62,1.12-1.24,2.2-1.84,3.24l-5.47,9.38h-19.49Z" style="fill: none; stroke: #000; stroke-miterlimit: 10;"/>
  <path d="m230.87,200.21c-5.98,0-11.36-.74-16.13-2.21-4.77-1.47-8.56-3.7-11.37-6.68-2.81-2.98-4.26-6.72-4.35-11.23h20.61c.24,1.51.86,2.76,1.86,3.75,1,.99,2.32,1.73,3.96,2.21,1.65.48,3.57.72,5.78.72,1.33,0,2.67-.14,4.03-.43,1.36-.29,2.49-.77,3.4-1.45.91-.68,1.36-1.59,1.36-2.73s-.51-2.15-1.52-2.85c-1.01-.7-2.49-1.31-4.44-1.82s-4.34-1.06-7.18-1.66c-2.87-.62-5.8-1.35-8.79-2.19-2.99-.83-5.75-1.92-8.29-3.26-2.54-1.34-4.58-3.07-6.14-5.2-1.56-2.12-2.33-4.76-2.33-7.91,0-4.56,1.29-8.21,3.87-10.96,2.58-2.75,6.03-4.74,10.35-5.98,4.32-1.24,9.08-1.86,14.27-1.86,3.56,0,6.98.34,10.26,1.02,3.28.68,6.21,1.74,8.79,3.18s4.64,3.32,6.18,5.62,2.34,5.08,2.4,8.34h-19.93c-.27-1.64-1.11-2.95-2.51-3.93s-3.5-1.46-6.27-1.46c-2.24,0-4.05.39-5.44,1.17-1.39.78-2.08,1.78-2.08,3.01s.63,2.07,1.9,2.7,3.12,1.18,5.55,1.66c2.43.48,5.35,1.09,8.77,1.82,2.9.6,5.72,1.33,8.47,2.21,2.75.87,5.22,2.01,7.43,3.42,2.2,1.41,3.96,3.18,5.26,5.33,1.3,2.15,1.95,4.81,1.95,7.99,0,4.27-1.34,7.87-4.01,10.78-2.67,2.92-6.26,5.12-10.76,6.62-4.5,1.5-9.47,2.25-14.9,2.25Z" style="fill: #e1b477; stroke-width: 0px;"/>
  <path d="m227.17,196.21c-5.98,0-11.36-.74-16.13-2.21-4.77-1.47-8.56-3.7-11.37-6.68-2.81-2.98-4.26-6.72-4.35-11.23h20.61c.24,1.51.86,2.76,1.86,3.75,1,.99,2.32,1.73,3.96,2.21,1.65.48,3.57.72,5.78.72,1.33,0,2.67-.14,4.03-.43,1.36-.29,2.49-.77,3.4-1.45.91-.68,1.36-1.59,1.36-2.73s-.51-2.15-1.52-2.85c-1.01-.7-2.49-1.31-4.44-1.82s-4.34-1.06-7.18-1.66c-2.87-.62-5.8-1.35-8.79-2.19-2.99-.83-5.75-1.92-8.29-3.26-2.54-1.34-4.58-3.07-6.14-5.2-1.56-2.12-2.33-4.76-2.33-7.91,0-4.56,1.29-8.21,3.87-10.96,2.58-2.75,6.03-4.74,10.35-5.98,4.32-1.24,9.08-1.86,14.27-1.86,3.56,0,6.98.34,10.26,1.02,3.28.68,6.21,1.74,8.79,3.18s4.64,3.32,6.18,5.62,2.34,5.08,2.4,8.34h-19.93c-.27-1.64-1.11-2.95-2.51-3.93s-3.5-1.46-6.27-1.46c-2.24,0-4.05.39-5.44,1.17-1.39.78-2.08,1.78-2.08,3.01s.63,2.07,1.9,2.7,3.12,1.18,5.55,1.66c2.43.48,5.35,1.09,8.77,1.82,2.9.6,5.72,1.33,8.47,2.21,2.75.87,5.22,2.01,7.43,3.42,2.2,1.41,3.96,3.18,5.26,5.33,1.3,2.15,1.95,4.81,1.95,7.99,0,4.27-1.34,7.87-4.01,10.78-2.67,2.92-6.26,5.12-10.76,6.62-4.5,1.5-9.47,2.25-14.9,2.25Z" style="fill: none; stroke: #000; stroke-miterlimit: 10;"/>
  <path d="m282.05,132.21v-44.65h-16.8v-14.88h51.21v14.88h-17.03v44.65h-17.38Z" style="fill: #68a19c; stroke-width: 0px;"/>
  <path d="m277.12,128.21v-44.65h-16.8v-14.88h51.21v14.88h-17.03v44.65h-17.38Z" style="fill: none; stroke: #000; stroke-miterlimit: 10;"/>
  <path d="m282.02,200.21v-44.65h-16.8v-14.88h51.21v14.88h-17.03v44.65h-17.38Z" style="fill: #e1b477; stroke-width: 0px;"/>
  <path d="m277.12,196.21v-44.65h-16.8v-14.88h51.21v14.88h-17.03v44.65h-17.38Z" style="fill: none; stroke: #000; stroke-miterlimit: 10;"/>
</svg>