<svg width="36" height="36" viewBox="0 0 36 36" fill="none" xmlns="http://www.w3.org/2000/svg">
<g id="Placeholder">
<rect width="36" height="36" rx="18" fill="#CC9933"/>
<path id="vector" fill-rule="evenodd" clip-rule="evenodd" d="M11 29C10.7239 29 10.5 28.7761 10.5 28.5V23C10.5 20.5148 12.5147 18.5001 15 18.5L21 18.5C23.4853 18.5 25.5 20.5147 25.5 23V28.5C25.5 28.7761 25.2761 29 25 29C24.7239 29 24.5 28.7761 24.5 28.5V23C24.5 21.067 22.933 19.5 21 19.5L15 19.5C13.067 19.5001 11.5 21.0671 11.5 23V28.5C11.5 28.7761 11.2761 29 11 29ZM23 12C23 14.7614 20.7614 17 18 17C15.2386 17 13 14.7614 13 12C13 9.23858 15.2386 7 18 7C20.7614 7 23 9.23858 23 12ZM18 16C20.2091 16 22 14.2091 22 12C22 9.79086 20.2091 8 18 8C15.7909 8 14 9.79086 14 12C14 14.2091 15.7909 16 18 16Z" fill="white"/>
</g>
</svg>
